<svg xmlns="http://www.w3.org/2000/svg" viewBox="0 0 223.19 211.5"><defs><style>.cls-1{opacity:0.2;}.cls-2{fill:#4d4d4d;}.cls-3{fill:#666;}.cls-4{opacity:0.5;}.cls-5,.cls-6,.cls-7{fill:#c819e1;}.cls-6,.cls-7{stroke:#666;stroke-miterlimit:10;stroke-width:0.75px;}.cls-6{opacity:0.4;}.cls-7{opacity:0.3;}</style></defs><title>ff2ebook-logo</title><g id="drop_shadow" data-name="drop shadow"><g class="cls-1"><path class="cls-2" d="M165.85,70.75v60.88l-52.63,21s.25-4.13,15.13-11.38L158.85,126l.25-66L131.47,73.38A39.89,39.89,0,0,0,111.6,90.13,39.93,39.93,0,0,0,91.72,73.38L64.1,60l.25,66,30.5,15.25C109.72,148.5,110,152.63,110,152.63l-52.62-21V70.75L52,68.25V136l49.88,18.75s9.62,11.25,19.5,0L171.22,136V68.25ZM111.6,149.13c-5.88-10.63-14.5-14-14.5-14L70.22,121.38V69.75S83.35,76.38,94.35,81.5A50,50,0,0,1,111.6,94.88,50,50,0,0,1,128.85,81.5c11-5.12,24.12-11.75,24.12-11.75v51.63L126.1,135.13S117.47,138.5,111.6,149.13Z"/><path class="cls-2" d="M148,115.38,124.1,126.5s-4.13,1.5-9,8.38c0,0-.13-9.13,9.62-14.13L148,109.44Z"/><path class="cls-2" d="M148.22,100.86,124.34,112s-4,1.52-9.24,7.36c0,0,.43-7.65,9.87-13.11l23.25-11.31Z"/><path class="cls-2" d="M148.09,86.34,124.22,97.47s-4.09,2-9.37,7.84c0,0,.56-8.14,10-13.59L148.09,80.4Z"/><path class="cls-2" d="M75.22,115.37,99.1,126.5s4.12,1.5,9,8.37c0,0,.12-9.12-9.63-14.12L75.22,109.44Z"/><path class="cls-2" d="M75,100.86,98.85,112s4,1.52,9.25,7.36c0,0-.44-7.65-9.88-13.11L75,94.92Z"/><path class="cls-2" d="M75.1,86.34,99,97.47s4.09,2,9.38,7.84c0,0-.57-8.14-10-13.59L75.1,80.4Z"/></g><g class="cls-1"><path class="cls-3" d="M20.54,167.86a15.82,15.82,0,0,1,3.7.41,17.26,17.26,0,0,1,2.59.79l-1.39,5.71a9.63,9.63,0,0,0-2.09-.65,11.46,11.46,0,0,0-2.09-.21,5.81,5.81,0,0,0-2.18.36,3.33,3.33,0,0,0-1.4,1,4,4,0,0,0-.72,1.49,7.87,7.87,0,0,0-.21,1.87v1.25h8.83v5.95H16.75v19.3H9.6v-26.6a10.76,10.76,0,0,1,2.76-7.77C14.2,168.82,16.92,167.86,20.54,167.86Zm20.11,0a15.76,15.76,0,0,1,3.7.41,17.26,17.26,0,0,1,2.59.79l-1.39,5.71a9.63,9.63,0,0,0-2.09-.65,11.46,11.46,0,0,0-2.09-.21,5.81,5.81,0,0,0-2.18.36,3.3,3.3,0,0,0-1.39,1,3.7,3.7,0,0,0-.72,1.49,7.38,7.38,0,0,0-.22,1.87v1.25h8.83v5.95H36.86v19.3H29.71v-26.6a10.76,10.76,0,0,1,2.76-7.77Q35.23,167.86,40.65,167.86Z"/><path class="cls-2" d="M70.41,180.58a8.81,8.81,0,0,1-.72,3.5,16.07,16.07,0,0,1-1.87,3.24,26.73,26.73,0,0,1-2.59,3c-1,1-1.91,1.87-2.83,2.74-.48.45-1,.95-1.56,1.51s-1.1,1.13-1.61,1.7-1,1.12-1.37,1.61a3.9,3.9,0,0,0-.74,1.23h14.3v6H49.24a8.34,8.34,0,0,1-.09-1.35v-1.15a11.69,11.69,0,0,1,.74-4.22,15.91,15.91,0,0,1,2-3.58,22.63,22.63,0,0,1,2.71-3.1l3-2.88c.77-.73,1.49-1.43,2.16-2.08a25.09,25.09,0,0,0,1.77-1.92,8.22,8.22,0,0,0,1.2-1.88,4.43,4.43,0,0,0,.44-1.89,3.43,3.43,0,0,0-1.2-3,5,5,0,0,0-3-.86,6.87,6.87,0,0,0-2.42.41,12,12,0,0,0-2.07,1,13.19,13.19,0,0,0-1.61,1.1c-.44.37-.78.66-1,.89l-3.56-5a17.81,17.81,0,0,1,4.92-3.24,14.44,14.44,0,0,1,6-1.28,16.65,16.65,0,0,1,5,.68,9.5,9.5,0,0,1,3.48,1.89,7.37,7.37,0,0,1,2,3A11.19,11.19,0,0,1,70.41,180.58Z"/><path class="cls-3" d="M76,192.67a15.4,15.4,0,0,1,1-5.88,12.63,12.63,0,0,1,2.71-4.2,11.32,11.32,0,0,1,3.87-2.54,12,12,0,0,1,4.48-.86,11.16,11.16,0,0,1,8.5,3.28q3.12,3.3,3.12,9.68c0,.41,0,.87,0,1.36s-.06.94-.09,1.32H83.37a4.76,4.76,0,0,0,2.07,3.51,8.29,8.29,0,0,0,4.89,1.29,20.8,20.8,0,0,0,3.87-.36,14.75,14.75,0,0,0,3.09-.88l1,5.8a8.7,8.7,0,0,1-1.53.58,20,20,0,0,1-2.14.5q-1.17.22-2.52.36a24.25,24.25,0,0,1-2.69.15,16,16,0,0,1-5.93-1A11.44,11.44,0,0,1,79.27,202a10.91,10.91,0,0,1-2.45-4.15A16.41,16.41,0,0,1,76,192.67Zm16.8-2.73a7.63,7.63,0,0,0-.31-1.78,4.52,4.52,0,0,0-.82-1.53,4.37,4.37,0,0,0-1.39-1.11,4.52,4.52,0,0,0-2.09-.43,4.79,4.79,0,0,0-2.06.41,4.14,4.14,0,0,0-1.44,1.08,4.81,4.81,0,0,0-.89,1.56,10.34,10.34,0,0,0-.46,1.8Z"/><path class="cls-3" d="M128.73,192.48a15.73,15.73,0,0,1-.89,5.47,11,11,0,0,1-6.69,6.84,15.38,15.38,0,0,1-5.57.94c-.86,0-1.77,0-2.71-.12s-1.87-.18-2.79-.31-1.78-.28-2.61-.46-1.57-.36-2.21-.55V169l7.15-1.15v12.57a13.28,13.28,0,0,1,2.5-.81,12.89,12.89,0,0,1,2.78-.29,11.28,11.28,0,0,1,4.75.94,9.27,9.27,0,0,1,3.46,2.66,12,12,0,0,1,2.11,4.15A19,19,0,0,1,128.73,192.48Zm-7.29-.19q0-6.91-5.09-6.91a8.14,8.14,0,0,0-2.19.29,6.11,6.11,0,0,0-1.75.72v13c.35.07.8.12,1.35.17s1.13.07,1.77.07a5.15,5.15,0,0,0,4.42-2A8.79,8.79,0,0,0,121.44,192.29Z"/><path class="cls-3" d="M157.87,192.43a16.31,16.31,0,0,1-.87,5.45,11.88,11.88,0,0,1-2.49,4.23,11.3,11.3,0,0,1-3.91,2.71,13.12,13.12,0,0,1-5.12,1,12.93,12.93,0,0,1-5.06-1,11.12,11.12,0,0,1-3.91-2.71,12.46,12.46,0,0,1-2.55-4.23,15.82,15.82,0,0,1-.91-5.45A14.93,14.93,0,0,1,134,187a12.41,12.41,0,0,1,2.59-4.18,11.53,11.53,0,0,1,3.94-2.68,12.6,12.6,0,0,1,5-1,12.8,12.8,0,0,1,5,1,11.41,11.41,0,0,1,3.91,2.68A12.33,12.33,0,0,1,157,187,15.6,15.6,0,0,1,157.87,192.43Zm-7.3,0a9,9,0,0,0-1.32-5.2,4.31,4.31,0,0,0-3.77-1.9,4.37,4.37,0,0,0-3.79,1.9,8.82,8.82,0,0,0-1.34,5.2,9.09,9.09,0,0,0,1.34,5.26,4.33,4.33,0,0,0,3.79,1.94,4.28,4.28,0,0,0,3.77-1.94A9.25,9.25,0,0,0,150.57,192.43Z"/><path class="cls-3" d="M187,192.43a16.31,16.31,0,0,1-.86,5.45,11.9,11.9,0,0,1-2.5,4.23,11.21,11.21,0,0,1-3.91,2.71,13,13,0,0,1-5.11,1,12.86,12.86,0,0,1-5.06-1,11.16,11.16,0,0,1-3.92-2.71,12.44,12.44,0,0,1-2.54-4.23,15.58,15.58,0,0,1-.91-5.45,15.15,15.15,0,0,1,.93-5.42,12.43,12.43,0,0,1,2.6-4.18,11.59,11.59,0,0,1,3.93-2.68,12.69,12.69,0,0,1,5-1,12.87,12.87,0,0,1,5,1,11.5,11.5,0,0,1,3.91,2.68,12.46,12.46,0,0,1,2.54,4.18A15.37,15.37,0,0,1,187,192.43Zm-7.29,0a9,9,0,0,0-1.32-5.2,4.31,4.31,0,0,0-3.77-1.9,4.36,4.36,0,0,0-3.79,1.9,8.82,8.82,0,0,0-1.35,5.2,9.09,9.09,0,0,0,1.35,5.26,4.32,4.32,0,0,0,3.79,1.94,4.28,4.28,0,0,0,3.77-1.94A9.25,9.25,0,0,0,179.71,192.43Z"/><path class="cls-3" d="M199.67,188.92c.71-.76,1.44-1.55,2.19-2.38s1.47-1.65,2.18-2.46l2-2.31c.62-.73,1.16-1.37,1.6-1.91h8.51c-1.7,1.95-3.35,3.81-5,5.58s-3.38,3.6-5.3,5.48a33.17,33.17,0,0,1,3,3.1q1.54,1.81,3,3.73t2.64,3.85q1.2,1.92,2,3.51h-8.22c-.51-.84-1.09-1.76-1.75-2.77s-1.35-2-2.08-3-1.51-2-2.33-2.91a19,19,0,0,0-2.42-2.36v11.07h-7.15V169l7.15-1.15Z"/></g></g><g id="Layer_2" data-name="Layer 2"><path class="cls-2" d="M163.64,69.25v60.88l-52.63,21s.25-4.13,15.13-11.38l30.5-15.25.25-66L129.26,71.88a39.89,39.89,0,0,0-19.87,16.75A39.93,39.93,0,0,0,89.51,71.88L61.89,58.5l.25,66,30.5,15.25c14.87,7.25,15.12,11.38,15.12,11.38l-52.62-21V69.25l-5.38-2.5V134.5l49.88,18.75s9.62,11.25,19.5,0L169,134.5V66.75Zm-54.25,78.38c-5.88-10.63-14.5-14-14.5-14L68,119.88V68.25S81.14,74.88,92.14,80a50,50,0,0,1,17.25,13.38A50,50,0,0,1,126.64,80c11-5.12,24.12-11.75,24.12-11.75v51.63l-26.87,13.75S115.26,137,109.39,147.63Z"/><path class="cls-2" d="M145.76,113.88,121.89,125s-4.13,1.5-9,8.38c0,0-.13-9.13,9.62-14.13l23.25-11.31Z"/><path class="cls-2" d="M146,99.36l-23.88,11.12s-4,1.52-9.24,7.36c0,0,.43-7.65,9.87-13.11L146,93.42Z"/><path class="cls-2" d="M145.88,84.84,122,96s-4.09,2-9.37,7.84c0,0,.56-8.14,10-13.59L145.88,78.9Z"/><path class="cls-2" d="M73,113.87,96.89,125s4.12,1.5,9,8.37c0,0,.12-9.12-9.63-14.12L73,107.94Z"/><path class="cls-2" d="M72.77,99.36l23.87,11.12s4,1.52,9.25,7.36c0,0-.44-7.65-9.87-13.11L72.77,93.42Z"/><path class="cls-2" d="M72.89,84.84,96.76,96s4.1,2,9.38,7.84c0,0-.57-8.14-10-13.59L72.89,78.9Z"/><path class="cls-2" d="M18.33,166.25a15.76,15.76,0,0,1,3.7.41,17.26,17.26,0,0,1,2.59.79l-1.39,5.71a9.63,9.63,0,0,0-2.09-.65,11.46,11.46,0,0,0-2.09-.21,5.81,5.81,0,0,0-2.18.36,3.38,3.38,0,0,0-1.39,1,3.7,3.7,0,0,0-.72,1.49,7.43,7.43,0,0,0-.22,1.87v1.25h8.83v5.95H14.54v19.3H7.39V176.91a10.77,10.77,0,0,1,2.76-7.78Q12.91,166.25,18.33,166.25Zm20.11,0a15.76,15.76,0,0,1,3.7.41,17.26,17.26,0,0,1,2.59.79l-1.39,5.71a9.63,9.63,0,0,0-2.09-.65,11.46,11.46,0,0,0-2.09-.21,5.81,5.81,0,0,0-2.18.36,3.38,3.38,0,0,0-1.39,1,3.7,3.7,0,0,0-.72,1.49,7.43,7.43,0,0,0-.22,1.87v1.25h8.83v5.95H34.65v19.3H27.5V176.91a10.77,10.77,0,0,1,2.76-7.78Q33,166.25,38.44,166.25Z"/><path class="cls-2" d="M68.2,179a8.77,8.77,0,0,1-.72,3.5,16.07,16.07,0,0,1-1.87,3.24,26.73,26.73,0,0,1-2.59,3c-1,1-1.9,1.87-2.83,2.74-.48.45-1,1-1.56,1.51s-1.1,1.13-1.61,1.71-1,1.11-1.37,1.6a3.9,3.9,0,0,0-.74,1.23h14.3v6H47a7.15,7.15,0,0,1-.1-1.35V201a11.69,11.69,0,0,1,.74-4.22,15.91,15.91,0,0,1,2-3.58,22.55,22.55,0,0,1,2.71-3.09c1-1,2-1.92,3-2.89.77-.73,1.49-1.43,2.16-2.08s1.26-1.3,1.78-1.92a9,9,0,0,0,1.2-1.88,4.56,4.56,0,0,0,.43-1.89,3.43,3.43,0,0,0-1.2-3,5,5,0,0,0-3-.86,7.11,7.11,0,0,0-2.42.41,12.58,12.58,0,0,0-3.67,2.06c-.45.37-.79.67-1,.89l-3.55-5A17.74,17.74,0,0,1,51,170.74a14.39,14.39,0,0,1,6-1.28,16.65,16.65,0,0,1,5,.68A9.5,9.5,0,0,1,65.54,172a7.49,7.49,0,0,1,2,3A11.42,11.42,0,0,1,68.2,179Z"/><path class="cls-2" d="M73.82,191.07a15.4,15.4,0,0,1,1-5.88,12.53,12.53,0,0,1,2.71-4.2,11.34,11.34,0,0,1,3.87-2.55,12.19,12.19,0,0,1,4.49-.86,11.12,11.12,0,0,1,8.49,3.29q3.12,3.28,3.12,9.67c0,.41,0,.87,0,1.37s-.06.93-.09,1.31H81.16a4.74,4.74,0,0,0,2.07,3.51,8.29,8.29,0,0,0,4.89,1.3,20.72,20.72,0,0,0,3.87-.36,15.33,15.33,0,0,0,3.09-.89l1,5.8a8.7,8.7,0,0,1-1.53.58c-.64.19-1.36.36-2.14.51s-1.62.26-2.52.36a26.77,26.77,0,0,1-2.69.14,15.91,15.91,0,0,1-5.92-1,11.48,11.48,0,0,1-4.18-2.76,11,11,0,0,1-2.45-4.15A16.39,16.39,0,0,1,73.82,191.07Zm16.8-2.74a7.63,7.63,0,0,0-.31-1.78,4.52,4.52,0,0,0-.82-1.53,4.37,4.37,0,0,0-1.39-1.11,4.66,4.66,0,0,0-2.09-.43,4.79,4.79,0,0,0-2.06.41A4.14,4.14,0,0,0,82.51,185a4.81,4.81,0,0,0-.89,1.56,10.34,10.34,0,0,0-.46,1.8Z"/><path class="cls-2" d="M126.52,190.87a16,16,0,0,1-.88,5.47,11.6,11.6,0,0,1-2.57,4.18,11.43,11.43,0,0,1-4.13,2.67,15.6,15.6,0,0,1-5.57.93c-.86,0-1.77,0-2.71-.12s-1.87-.18-2.78-.31-1.79-.28-2.62-.46-1.57-.36-2.21-.55V167.4l7.15-1.15v12.58a12.76,12.76,0,0,1,5.28-1.11,11.33,11.33,0,0,1,4.76.94,9.32,9.32,0,0,1,3.45,2.66,12,12,0,0,1,2.11,4.15A19,19,0,0,1,126.52,190.87Zm-7.29-.19q0-6.92-5.09-6.91a8.48,8.48,0,0,0-2.18.29,6.18,6.18,0,0,0-1.76.72v13c.36.06.8.12,1.35.16s1.13.08,1.77.08a5.16,5.16,0,0,0,4.42-2A8.77,8.77,0,0,0,119.23,190.68Z"/><path class="cls-2" d="M155.66,190.83a16.51,16.51,0,0,1-.86,5.44,11.9,11.9,0,0,1-2.5,4.23,11.21,11.21,0,0,1-3.91,2.71,13.09,13.09,0,0,1-5.12,1,12.93,12.93,0,0,1-5.06-1,11.21,11.21,0,0,1-3.91-2.71,12.28,12.28,0,0,1-2.54-4.23,15.52,15.52,0,0,1-.92-5.44,15,15,0,0,1,.94-5.43,12.41,12.41,0,0,1,2.59-4.18,11.72,11.72,0,0,1,3.94-2.68,12.64,12.64,0,0,1,5-1,12.8,12.8,0,0,1,5,1,11.41,11.41,0,0,1,3.91,2.68,12.33,12.33,0,0,1,2.55,4.18A15.39,15.39,0,0,1,155.66,190.83Zm-7.3,0a9,9,0,0,0-1.32-5.21,4.3,4.3,0,0,0-3.77-1.9,4.37,4.37,0,0,0-3.79,1.9,8.91,8.91,0,0,0-1.34,5.21,9.13,9.13,0,0,0,1.34,5.25,4.34,4.34,0,0,0,3.79,1.95,4.27,4.27,0,0,0,3.77-1.95A9.21,9.21,0,0,0,148.36,190.83Z"/><path class="cls-2" d="M184.79,190.83a16.25,16.25,0,0,1-.86,5.44,11.88,11.88,0,0,1-2.49,4.23,11.25,11.25,0,0,1-3.92,2.71,13,13,0,0,1-5.11,1,12.89,12.89,0,0,1-5.06-1,11.12,11.12,0,0,1-3.91-2.71,12.46,12.46,0,0,1-2.55-4.23,15.53,15.53,0,0,1-.91-5.44,15.17,15.17,0,0,1,.93-5.43,12.43,12.43,0,0,1,2.6-4.18,11.59,11.59,0,0,1,3.93-2.68,12.69,12.69,0,0,1,5-1,12.83,12.83,0,0,1,5,1,11.41,11.41,0,0,1,3.91,2.68,12.3,12.3,0,0,1,2.54,4.18A15.39,15.39,0,0,1,184.79,190.83Zm-7.29,0a9,9,0,0,0-1.32-5.21,4.31,4.31,0,0,0-3.77-1.9,4.36,4.36,0,0,0-3.79,1.9,8.83,8.83,0,0,0-1.35,5.21,9.05,9.05,0,0,0,1.35,5.25,4.33,4.33,0,0,0,3.79,1.95,4.29,4.29,0,0,0,3.77-1.95A9.21,9.21,0,0,0,177.5,190.83Z"/><path class="cls-2" d="M197.47,187.32l2.18-2.39c.75-.83,1.48-1.65,2.18-2.46s1.37-1.58,2-2.31l1.61-1.91h8.5c-1.7,1.95-3.35,3.81-5,5.58s-3.38,3.6-5.3,5.48a33.17,33.17,0,0,1,3,3.1q1.55,1.82,3,3.73c1,1.28,1.84,2.57,2.64,3.85s1.47,2.45,2,3.51H206c-.51-.84-1.09-1.76-1.75-2.77s-1.35-2-2.08-3-1.51-2-2.32-2.91a20.39,20.39,0,0,0-2.42-2.36V203.5h-7.15V167.4l7.15-1.15Z"/></g><g id="Layer_3" data-name="Layer 3"><g class="cls-4"><path class="cls-5" d="M109.67,15.82A69.47,69.47,0,0,1,165.94,44.5l9.58-4.75a80.12,80.12,0,0,0-132.27.8l9.63,4.7A69.43,69.43,0,0,1,109.67,15.82Z"/><path class="cls-3" d="M109.67,15.78a69.64,69.64,0,0,1,31.65,7.47,70.35,70.35,0,0,1,24.87,21.07l-.39-.09,9.57-4.79-.14.51a79.61,79.61,0,0,0-66-34,79,79,0,0,0-37.09,9.25A80.19,80.19,0,0,0,43.55,40.75l-.14-.52L53,45l-.39.1a69.72,69.72,0,0,1,57.05-29.29Zm0,.08A69.5,69.5,0,0,0,52.92,45.28l0,0,0,0L43.23,40.6l-.06,0,0,0A80.62,80.62,0,0,1,71.82,14.68a80.18,80.18,0,0,1,74.83-.45,80.79,80.79,0,0,1,28.92,25.49l0,.05-.06,0L166,44.55l0,0,0,0a69.54,69.54,0,0,0-56.22-28.67Z"/></g><path class="cls-6" d="M109.65,37.47a47.79,47.79,0,0,1,36.46,16.85l9-4.46a57.66,57.66,0,0,0-91.42.67l9,4.38A47.83,47.83,0,0,1,109.65,37.47Z"/><path class="cls-7" d="M109.64,59.43a25.84,25.84,0,0,1,15.6,5.22l9.66-4.78a35.86,35.86,0,0,0-51,.52l9.61,4.69A25.83,25.83,0,0,1,109.64,59.43Z"/></g></svg>