<svg xmlns="http://www.w3.org/2000/svg" viewBox="0 0 219.62 51.24"><defs><style>.cls-1{opacity:0.2;}.cls-2{fill:#666;}.cls-3{fill:#4d4d4d;}</style></defs><title>ff2ebook</title><g id="drop_shadow" data-name="drop shadow"><g class="cls-1"><path class="cls-2" d="M20.54,5a15.82,15.82,0,0,1,3.7.41,18.52,18.52,0,0,1,2.59.79l-1.39,5.72a9.11,9.11,0,0,0-2.09-.65A10.7,10.7,0,0,0,21.26,11a5.81,5.81,0,0,0-2.18.36,3.42,3.42,0,0,0-1.4,1A4.06,4.06,0,0,0,17,13.87a8,8,0,0,0-.21,1.88V17h8.83v6H16.75V42.24H9.6V15.65a10.77,10.77,0,0,1,2.76-7.78C14.2,6,16.92,5,20.54,5ZM40.65,5a15.76,15.76,0,0,1,3.7.41,18.52,18.52,0,0,1,2.59.79l-1.39,5.72a9.11,9.11,0,0,0-2.09-.65A10.7,10.7,0,0,0,41.37,11a5.81,5.81,0,0,0-2.18.36,3.38,3.38,0,0,0-1.39,1,3.76,3.76,0,0,0-.72,1.49,7.46,7.46,0,0,0-.22,1.88V17h8.83v6H36.86V42.24H29.71V15.65a10.77,10.77,0,0,1,2.76-7.78Q35.23,5,40.65,5Z"/><path class="cls-3" d="M70.41,17.71a8.82,8.82,0,0,1-.72,3.51,16.07,16.07,0,0,1-1.87,3.24,26.73,26.73,0,0,1-2.59,3c-1,1-1.91,1.87-2.83,2.73-.48.45-1,1-1.56,1.52s-1.1,1.12-1.61,1.7-1,1.11-1.37,1.61a3.77,3.77,0,0,0-.74,1.22h14.3v6H49.24a8.21,8.21,0,0,1-.09-1.34V39.75a11.74,11.74,0,0,1,.74-4.23,15.84,15.84,0,0,1,2-3.57,22.05,22.05,0,0,1,2.71-3.1l3-2.88c.77-.74,1.49-1.43,2.16-2.09A23.35,23.35,0,0,0,61.48,22a8.17,8.17,0,0,0,1.2-1.87,4.5,4.5,0,0,0,.44-1.9,3.41,3.41,0,0,0-1.2-3,5,5,0,0,0-3-.87,7.11,7.11,0,0,0-2.42.41,12,12,0,0,0-2.07,1,13.19,13.19,0,0,0-1.61,1.11c-.44.36-.78.66-1,.88l-3.56-5A18.27,18.27,0,0,1,53.2,9.48a14.43,14.43,0,0,1,6-1.27,16.68,16.68,0,0,1,5,.67,9.37,9.37,0,0,1,3.48,1.9,7.33,7.33,0,0,1,2,3A11.19,11.19,0,0,1,70.41,17.71Z"/><path class="cls-2" d="M76,29.81a15.4,15.4,0,0,1,1-5.88,12.63,12.63,0,0,1,2.71-4.2,11.17,11.17,0,0,1,3.87-2.54,12,12,0,0,1,4.48-.87,11.16,11.16,0,0,1,8.5,3.29q3.12,3.29,3.12,9.67c0,.42,0,.87,0,1.37s-.06.93-.09,1.32H83.37a4.74,4.74,0,0,0,2.07,3.5,8.22,8.22,0,0,0,4.89,1.3,20.8,20.8,0,0,0,3.87-.36,14.7,14.7,0,0,0,3.09-.89l1,5.81a10.65,10.65,0,0,1-1.53.58,20,20,0,0,1-2.14.5q-1.17.21-2.52.36a24.24,24.24,0,0,1-2.69.14,16,16,0,0,1-5.93-1,11.69,11.69,0,0,1-4.17-2.76A11,11,0,0,1,76.82,35,16.35,16.35,0,0,1,76,29.81Zm16.8-2.74a7.55,7.55,0,0,0-.31-1.77,4.48,4.48,0,0,0-.82-1.54,4.35,4.35,0,0,0-1.39-1.1,4.52,4.52,0,0,0-2.09-.43,4.79,4.79,0,0,0-2.06.4,4.4,4.4,0,0,0-1.44,1.08,4.81,4.81,0,0,0-.89,1.56,10.81,10.81,0,0,0-.46,1.8Z"/><path class="cls-2" d="M128.73,29.62a15.77,15.77,0,0,1-.89,5.47,11.61,11.61,0,0,1-2.56,4.18,11.36,11.36,0,0,1-4.13,2.66,15.6,15.6,0,0,1-5.57.94c-.86,0-1.77,0-2.71-.12s-1.87-.19-2.79-.32-1.78-.28-2.61-.45-1.57-.36-2.21-.56V6.15L112.41,5V17.57a14.07,14.07,0,0,1,2.5-.82,12.89,12.89,0,0,1,2.78-.29,11.44,11.44,0,0,1,4.75.94,9.3,9.3,0,0,1,3.46,2.67A11.87,11.87,0,0,1,128,24.22,18.87,18.87,0,0,1,128.73,29.62Zm-7.29-.2c0-4.6-1.7-6.91-5.09-6.91a8.55,8.55,0,0,0-2.19.29,6.11,6.11,0,0,0-1.75.72v13c.35.06.8.12,1.35.17s1.13.07,1.77.07a5.13,5.13,0,0,0,4.42-2A8.77,8.77,0,0,0,121.44,29.42Z"/><path class="cls-2" d="M157.87,29.57A16.35,16.35,0,0,1,157,35a11.84,11.84,0,0,1-2.49,4.22A11.3,11.3,0,0,1,150.6,42a13.12,13.12,0,0,1-5.12,1,12.93,12.93,0,0,1-5.06-1,11.12,11.12,0,0,1-3.91-2.71A12.41,12.41,0,0,1,134,35a15.86,15.86,0,0,1-.91-5.45,14.93,14.93,0,0,1,.94-5.42A12.22,12.22,0,0,1,136.58,20a11.55,11.55,0,0,1,3.94-2.69,12.6,12.6,0,0,1,5-1,12.8,12.8,0,0,1,5,1A11.43,11.43,0,0,1,154.41,20,12.14,12.14,0,0,1,157,24.15,15.6,15.6,0,0,1,157.87,29.57Zm-7.3,0a9,9,0,0,0-1.32-5.21,4.33,4.33,0,0,0-3.77-1.9,4.39,4.39,0,0,0-3.79,1.9,8.86,8.86,0,0,0-1.34,5.21,9.09,9.09,0,0,0,1.34,5.26,4.36,4.36,0,0,0,3.79,1.94,4.3,4.3,0,0,0,3.77-1.94A9.25,9.25,0,0,0,150.57,29.57Z"/><path class="cls-2" d="M187,29.57a16.35,16.35,0,0,1-.86,5.45,11.86,11.86,0,0,1-2.5,4.22A11.21,11.21,0,0,1,179.73,42a13,13,0,0,1-5.11,1,12.86,12.86,0,0,1-5.06-1,11.16,11.16,0,0,1-3.92-2.71A12.39,12.39,0,0,1,163.1,35a15.62,15.62,0,0,1-.91-5.45,15.15,15.15,0,0,1,.93-5.42,12.24,12.24,0,0,1,2.6-4.18,11.61,11.61,0,0,1,3.93-2.69,12.69,12.69,0,0,1,5-1,12.87,12.87,0,0,1,5,1A11.53,11.53,0,0,1,183.55,20a12.27,12.27,0,0,1,2.54,4.18A15.37,15.37,0,0,1,187,29.57Zm-7.29,0a9,9,0,0,0-1.32-5.21,4.33,4.33,0,0,0-3.77-1.9,4.38,4.38,0,0,0-3.79,1.9,8.85,8.85,0,0,0-1.35,5.21,9.09,9.09,0,0,0,1.35,5.26,4.35,4.35,0,0,0,3.79,1.94,4.3,4.3,0,0,0,3.77-1.94A9.25,9.25,0,0,0,179.71,29.57Z"/><path class="cls-2" d="M199.67,26.06c.71-.76,1.44-1.56,2.19-2.39S203.33,22,204,21.22l2-2.32c.62-.73,1.16-1.36,1.6-1.91h8.51c-1.7,2-3.35,3.81-5,5.58s-3.38,3.6-5.3,5.49a32,32,0,0,1,3,3.1q1.54,1.8,3,3.72t2.64,3.85q1.2,1.92,2,3.51h-8.22c-.51-.83-1.09-1.75-1.75-2.77s-1.35-2-2.08-3-1.51-2-2.33-2.91a19.68,19.68,0,0,0-2.42-2.36V42.24h-7.15V6.15L199.67,5Z"/></g></g><g id="Layer_2" data-name="Layer 2"><path class="cls-3" d="M18.33,3.38a15.76,15.76,0,0,1,3.7.41,18.52,18.52,0,0,1,2.59.79L23.23,10.3a9.11,9.11,0,0,0-2.09-.65,10.7,10.7,0,0,0-2.09-.22,5.81,5.81,0,0,0-2.18.36,3.31,3.31,0,0,0-1.39,1,3.66,3.66,0,0,0-.72,1.48,7.46,7.46,0,0,0-.22,1.88v1.24h8.83v6H14.54V40.63H7.39V14a10.79,10.79,0,0,1,2.76-7.78Q12.91,3.38,18.33,3.38Zm20.11,0a15.76,15.76,0,0,1,3.7.41,18.52,18.52,0,0,1,2.59.79L43.34,10.3a9.11,9.11,0,0,0-2.09-.65,10.7,10.7,0,0,0-2.09-.22A5.81,5.81,0,0,0,37,9.79a3.31,3.31,0,0,0-1.39,1,3.66,3.66,0,0,0-.72,1.48,7.46,7.46,0,0,0-.22,1.88v1.24h8.83v6H34.65V40.63H27.5V14a10.79,10.79,0,0,1,2.76-7.78Q33,3.38,38.44,3.38Z"/><path class="cls-3" d="M68.2,16.1a8.82,8.82,0,0,1-.72,3.51,16.07,16.07,0,0,1-1.87,3.24,26.73,26.73,0,0,1-2.59,3c-1,1-1.9,1.87-2.83,2.73-.48.45-1,1-1.56,1.52s-1.1,1.12-1.61,1.7-1,1.11-1.37,1.61a3.77,3.77,0,0,0-.74,1.22h14.3v6H47a7.11,7.11,0,0,1-.1-1.34V38.14a11.74,11.74,0,0,1,.74-4.23,15.84,15.84,0,0,1,2-3.57,22.05,22.05,0,0,1,2.71-3.1l3-2.88c.77-.74,1.49-1.43,2.16-2.09a23.69,23.69,0,0,0,1.78-1.92,8.91,8.91,0,0,0,1.2-1.87,4.61,4.61,0,0,0,.43-1.9,3.41,3.41,0,0,0-1.2-3,4.94,4.94,0,0,0-3-.87,7.11,7.11,0,0,0-2.42.41,12.29,12.29,0,0,0-3.67,2.07,12.85,12.85,0,0,0-1,.88l-3.55-5A18,18,0,0,1,51,7.87,14.38,14.38,0,0,1,57,6.6a16.68,16.68,0,0,1,5,.67,9.37,9.37,0,0,1,3.48,1.9,7.45,7.45,0,0,1,2,3A11.42,11.42,0,0,1,68.2,16.1Z"/><path class="cls-3" d="M73.82,28.2a15.4,15.4,0,0,1,1-5.88,12.63,12.63,0,0,1,2.71-4.2,11.17,11.17,0,0,1,3.87-2.54,12,12,0,0,1,4.49-.87A11.15,11.15,0,0,1,94.41,18q3.12,3.29,3.12,9.67c0,.42,0,.87,0,1.37s-.06.94-.09,1.32H81.16a4.74,4.74,0,0,0,2.07,3.5,8.22,8.22,0,0,0,4.89,1.3A20.72,20.72,0,0,0,92,34.8a14.7,14.7,0,0,0,3.09-.89l1,5.81a10.65,10.65,0,0,1-1.53.58,20,20,0,0,1-2.14.5q-1.17.21-2.52.36a24.11,24.11,0,0,1-2.69.14,15.92,15.92,0,0,1-5.92-1,11.74,11.74,0,0,1-4.18-2.76,11.08,11.08,0,0,1-2.45-4.16A16.35,16.35,0,0,1,73.82,28.2Zm16.8-2.74a7.55,7.55,0,0,0-.31-1.77,4.48,4.48,0,0,0-.82-1.54,4.35,4.35,0,0,0-1.39-1.1A4.52,4.52,0,0,0,86,20.62,4.79,4.79,0,0,0,84,21a4.4,4.4,0,0,0-1.44,1.08,4.81,4.81,0,0,0-.89,1.56,10.81,10.81,0,0,0-.46,1.8Z"/><path class="cls-3" d="M126.52,28a16,16,0,0,1-.88,5.47,11.77,11.77,0,0,1-2.57,4.18,11.28,11.28,0,0,1-4.13,2.66,15.6,15.6,0,0,1-5.57.94c-.86,0-1.77,0-2.71-.12s-1.87-.19-2.78-.32-1.79-.28-2.62-.45-1.57-.36-2.21-.55V4.54l7.15-1.16V16a14.34,14.34,0,0,1,2.5-.82,12.9,12.9,0,0,1,2.78-.28,11.49,11.49,0,0,1,4.76.93,9.34,9.34,0,0,1,3.45,2.67,11.87,11.87,0,0,1,2.11,4.15A18.87,18.87,0,0,1,126.52,28Zm-7.29-.19q0-6.91-5.09-6.92a8.48,8.48,0,0,0-2.18.29,6.18,6.18,0,0,0-1.76.72v13c.36.06.8.12,1.35.17s1.13.07,1.77.07a5.13,5.13,0,0,0,4.42-2A8.76,8.76,0,0,0,119.23,27.82Z"/><path class="cls-3" d="M155.66,28a16.61,16.61,0,0,1-.86,5.45,11.86,11.86,0,0,1-2.5,4.22,11.21,11.21,0,0,1-3.91,2.71,13.09,13.09,0,0,1-5.12,1,12.93,12.93,0,0,1-5.06-1,11.21,11.21,0,0,1-3.91-2.71,12.24,12.24,0,0,1-2.54-4.22,15.62,15.62,0,0,1-.92-5.45,14.93,14.93,0,0,1,.94-5.42,12.22,12.22,0,0,1,2.59-4.18,11.75,11.75,0,0,1,3.94-2.69,12.64,12.64,0,0,1,5-1,12.8,12.8,0,0,1,5,1,11.43,11.43,0,0,1,3.91,2.69,12.14,12.14,0,0,1,2.55,4.18A15.37,15.37,0,0,1,155.66,28Zm-7.3,0A9,9,0,0,0,147,22.75a4.31,4.31,0,0,0-3.77-1.89,4.39,4.39,0,0,0-3.79,1.89A8.93,8.93,0,0,0,138.14,28a9.17,9.17,0,0,0,1.34,5.26,4.36,4.36,0,0,0,3.79,1.94A4.29,4.29,0,0,0,147,33.22,9.25,9.25,0,0,0,148.36,28Z"/><path class="cls-3" d="M184.79,28a16.35,16.35,0,0,1-.86,5.45,11.84,11.84,0,0,1-2.49,4.22,11.25,11.25,0,0,1-3.92,2.71,13,13,0,0,1-5.11,1,12.89,12.89,0,0,1-5.06-1,11.12,11.12,0,0,1-3.91-2.71,12.41,12.41,0,0,1-2.55-4.22A15.62,15.62,0,0,1,160,28a15.15,15.15,0,0,1,.93-5.42,12.24,12.24,0,0,1,2.6-4.18,11.61,11.61,0,0,1,3.93-2.69,12.69,12.69,0,0,1,5-1,12.83,12.83,0,0,1,5,1,11.43,11.43,0,0,1,3.91,2.69,12.11,12.11,0,0,1,2.54,4.18A15.37,15.37,0,0,1,184.79,28Zm-7.29,0a9,9,0,0,0-1.32-5.21,4.33,4.33,0,0,0-3.77-1.89,4.37,4.37,0,0,0-3.79,1.89A8.85,8.85,0,0,0,167.27,28a9.09,9.09,0,0,0,1.35,5.26,4.35,4.35,0,0,0,3.79,1.94,4.3,4.3,0,0,0,3.77-1.94A9.25,9.25,0,0,0,177.5,28Z"/><path class="cls-3" d="M197.47,24.45l2.18-2.39c.75-.82,1.48-1.64,2.18-2.45l2-2.32c.62-.73,1.16-1.36,1.61-1.91h8.5c-1.7,1.95-3.35,3.81-5,5.58s-3.38,3.6-5.3,5.49a32,32,0,0,1,3,3.1q1.55,1.8,3,3.73t2.64,3.84c.8,1.28,1.47,2.45,2,3.51H206c-.51-.83-1.09-1.75-1.75-2.76s-1.35-2-2.08-3-1.51-2-2.32-2.91a20.25,20.25,0,0,0-2.42-2.35V40.63h-7.15V4.54l7.15-1.16Z"/></g></svg>