<svg xmlns="http://www.w3.org/2000/svg" viewBox="0 0 223.19 211.5"><defs><style>.cls-1,.cls-3{fill:#4d4d4d;}.cls-2,.cls-5{opacity:0.2;}.cls-3,.cls-5{font-size:48px;font-family:Ubuntu-Bold, Ubuntu;font-weight:700;}.cls-4,.cls-7{fill:#9dff1f;}.cls-4{stroke:#4d4d4d;stroke-miterlimit:10;stroke-width:0.5px;}.cls-4,.cls-6{opacity:0.4;}.cls-5,.cls-8{fill:#666;}</style></defs><title>ff2ebook-logo</title><g id="Layer_2" data-name="Layer 2"><path class="cls-1" d="M163.64,69.25v60.88l-52.63,21s.25-4.12,15.13-11.37l30.5-15.25.25-66L129.26,71.88a39.94,39.94,0,0,0-19.88,16.75A39.94,39.94,0,0,0,89.51,71.88L61.89,58.5l.25,66,30.5,15.25c14.87,7.25,15.12,11.38,15.12,11.38l-52.62-21V69.25l-5.37-2.5V134.5l49.87,18.75s9.62,11.25,19.5,0L169,134.5V66.75Zm-54.25,78.38c-5.87-10.62-14.5-14-14.5-14L68,119.88V68.25S81.14,74.88,92.14,80a50,50,0,0,1,17.25,13.38A50,50,0,0,1,126.64,80c11-5.12,24.13-11.75,24.13-11.75v51.63l-26.88,13.75S115.26,137,109.39,147.63Z"/><path class="cls-1" d="M145.76,113.88,121.89,125s-4.12,1.5-9,8.38c0,0-.12-9.12,9.63-14.12l23.25-11.31Z"/><path class="cls-1" d="M146,99.36l-23.88,11.13s-4,1.52-9.25,7.36c0,0,.44-7.66,9.87-13.11L146,93.42Z"/><path class="cls-1" d="M145.88,84.84,122,96s-4.09,2-9.37,7.85c0,0,.56-8.14,10-13.6L145.88,78.9Z"/><path class="cls-1" d="M73,113.88,96.89,125s4.12,1.5,9,8.38c0,0,.13-9.12-9.62-14.12L73,107.94Z"/><path class="cls-1" d="M72.77,99.36l23.88,11.13s4,1.52,9.25,7.36c0,0-.44-7.66-9.87-13.11L72.77,93.42Z"/><path class="cls-1" d="M72.89,84.84,96.76,96s4.09,2,9.37,7.85c0,0-.56-8.14-10-13.6L72.89,78.9Z"/><g class="cls-2"><path class="cls-1" d="M165.85,71.46v60.88l-52.62,21s.25-4.12,15.13-11.37l30.5-15.25.25-66L131.47,74.08A39.94,39.94,0,0,0,111.6,90.83,39.94,39.94,0,0,0,91.72,74.08L64.1,60.71l.25,66L94.85,142c14.87,7.25,15.12,11.38,15.12,11.38l-52.62-21V71.46L52,69v67.75l49.87,18.75s9.63,11.25,19.5,0l49.88-18.75V69ZM111.6,149.83c-5.87-10.62-14.5-14-14.5-14L70.22,122.08V70.46s13.13,6.63,24.13,11.75A50,50,0,0,1,111.6,95.58a50,50,0,0,1,17.25-13.37c11-5.12,24.13-11.75,24.13-11.75v51.63L126.1,135.83S117.47,139.21,111.6,149.83Z"/><path class="cls-1" d="M148,116.08,124.1,127.21s-4.12,1.5-9,8.38c0,0-.12-9.13,9.63-14.13L148,110.14Z"/><path class="cls-1" d="M148.22,101.57l-23.87,11.13s-4,1.52-9.25,7.36c0,0,.44-7.66,9.87-13.11l23.25-11.31Z"/><path class="cls-1" d="M148.09,87,124.22,98.17s-4.09,2-9.37,7.85c0,0,.56-8.14,10-13.6l23.25-11.31Z"/><path class="cls-1" d="M75.22,116.08,99.1,127.21s4.12,1.5,9,8.38c0,0,.13-9.13-9.62-14.13L75.22,110.14Z"/><path class="cls-1" d="M75,101.57l23.88,11.13s4,1.52,9.25,7.36c0,0-.44-7.66-9.87-13.11L75,95.63Z"/><path class="cls-1" d="M75.1,87,99,98.17s4.09,2,9.37,7.85c0,0-.56-8.14-10-13.6L75.1,81.11Z"/></g><text class="cls-3" transform="translate(4.03 203.5)">ff<tspan class="cls-4" x="40.37" y="0">2</tspan><tspan x="67.63" y="0">ebook</tspan></text><text class="cls-5" transform="translate(6.24 205.11)">ff<tspan class="cls-6" x="40.37" y="0">2</tspan><tspan x="67.63" y="0">ebook</tspan></text></g><g id="Layer_3" data-name="Layer 3"><g class="cls-6"><path class="cls-7" d="M109.67,15.82A69.45,69.45,0,0,1,165.94,44.5l9.59-4.75a80.12,80.12,0,0,0-132.27.8l9.63,4.7A69.45,69.45,0,0,1,109.67,15.82Z"/><path class="cls-8" d="M109.67,15.78a69.73,69.73,0,0,1,56.52,28.54l-.39-.09,9.57-4.79-.13.52a79.6,79.6,0,0,0-66.05-34,79,79,0,0,0-37.09,9.25A80.13,80.13,0,0,0,43.55,40.75l-.14-.52L53,45l-.39.1a69.73,69.73,0,0,1,57-29.28Zm0,.08A69.51,69.51,0,0,0,52.92,45.28l0,0,0,0L43.23,40.6l-.06,0,0-.05A80.63,80.63,0,0,1,71.82,14.68a80.19,80.19,0,0,1,74.83-.44,80.68,80.68,0,0,1,28.92,25.48l0,.05-.06,0L166,44.55l0,0,0,0a69.51,69.51,0,0,0-56.22-28.68Z"/></g><g class="cls-6"><path class="cls-7" d="M109.65,37.47a47.79,47.79,0,0,1,36.46,16.85l9-4.45a57.67,57.67,0,0,0-91.42.66l9,4.39A47.81,47.81,0,0,1,109.65,37.47Z"/><path class="cls-8" d="M109.65,37.43a48,48,0,0,1,36.68,16.7l-.35-.07,9-4.51-.12.53a57.61,57.61,0,0,0-20.3-16.18A58.69,58.69,0,0,0,84,34.26,57.58,57.58,0,0,0,64,50.74l-.13-.53,9,4.44-.36.08a48.06,48.06,0,0,1,37.21-17.3Zm0,.07A47.85,47.85,0,0,0,72.71,54.95l0,0,0,0-9-4.38-.06,0,0-.05A58.07,58.07,0,0,1,83.76,33.74a57.74,57.74,0,0,1,51-.36,58.1,58.1,0,0,1,20.37,16.45l0,.05-.06,0-9,4.45,0,0,0,0a47.82,47.82,0,0,0-36.42-16.85Z"/></g><g class="cls-6"><path class="cls-7" d="M109.64,59.43a25.83,25.83,0,0,1,15.6,5.22l9.65-4.78a35.88,35.88,0,0,0-51,.52l9.62,4.69A25.83,25.83,0,0,1,109.64,59.43Z"/><path class="cls-8" d="M109.64,59.4a26.06,26.06,0,0,1,8.26,1.29,26.84,26.84,0,0,1,7.45,3.84l-.17,0,9.57-4.95-.09.56a35.78,35.78,0,0,0-11.74-7.47,35.25,35.25,0,0,0-13.63-2.49A36,36,0,0,0,84.13,60.63l-.1-.57,9.54,4.85-.19,0a27.07,27.07,0,0,1,7.67-4.15A26,26,0,0,1,109.64,59.4Zm0,.07a25.87,25.87,0,0,0-16.12,5.65l0,0h0l-9.62-4.69-.07,0,.05-.06a36.11,36.11,0,0,1,11.62-8,36,36,0,0,1,27.7-.28,36.08,36.08,0,0,1,11.78,7.78l.06.06-.07,0-9.66,4.78h0l0,0A25.87,25.87,0,0,0,109.64,59.47Z"/></g></g></svg>